# Blender v3.0.1 OBJ File: 'Stone_Window_Sill.blend'
# www.blender.org
mtllib Grey_Window_Round_Sill_01.mtl
o Grey_Window_Round_Sill_01
v 0.500000 2.200000 0.000000
v 0.500000 2.200000 -0.500000
v 0.400000 2.200000 -0.500000
v 0.100000 2.200000 -0.500000
v 0.000000 2.200000 -0.500000
v 0.000000 2.200000 0.000000
v 0.500000 0.000000 0.000000
v 0.500000 0.000000 -0.500000
v 0.000000 0.000000 -0.500000
v 0.100000 0.000000 -0.500000
v 0.400000 0.000000 -0.500000
v 0.000000 0.000000 0.000000
v 0.100000 1.630770 -1.321570
v 0.100000 2.200001 -2.500000
v 0.400000 2.200001 -2.500000
v 0.000000 2.200001 -3.000000
v 0.000000 2.200001 -2.500000
v 0.500000 2.200001 -2.500000
v 0.500000 2.200001 -3.000000
v 0.000000 0.000000 -3.000000
v 0.000000 0.000000 -2.500000
v 0.500000 0.000000 -2.500000
v 0.400000 0.000000 -2.500000
v 0.100000 0.000000 -2.500000
v 0.500000 0.000000 -3.000000
v 0.400000 1.452340 -1.752340
v 0.400000 1.630770 -1.678430
v 0.400000 1.704680 -1.500000
v 0.400000 1.630770 -1.321570
v 0.400000 1.452340 -1.247660
v 0.400000 0.557662 -1.247660
v 0.100000 0.557662 -1.247660
v 0.100000 1.452340 -1.247660
v 0.400000 0.657662 -1.247660
v 0.100000 0.657662 -1.247660
v 0.400000 0.557662 -1.752340
v 0.100000 0.557662 -1.752340
v 0.400000 0.657662 -1.752340
v 0.100000 1.452340 -1.752340
v 0.100000 0.657662 -1.752340
v 0.100000 1.630770 -1.678430
v 0.100000 1.704680 -1.500000
v 0.500000 0.657662 -1.247660
v 0.500000 0.657662 -1.752340
v 0.500000 0.557662 -1.247660
v 0.500000 0.557662 -1.752340
vt 0.227273 0.000000
vt 0.227273 0.227273
vt 0.181818 0.227273
vt 0.045454 0.227273
vt 0.000000 0.227273
vt 0.000000 0.000000
vt 0.000000 0.000000
vt 0.227273 0.000000
vt 0.227273 1.000000
vt 0.000000 1.000000
vt 0.000000 0.227273
vt -0.045454 0.227273
vt -0.181818 0.227273
vt -0.227273 0.227273
vt -0.227273 0.000000
vt 0.000000 0.000000
vt 0.000000 0.000000
vt 0.000000 1.000000
vt -0.045454 1.000000
vt -0.045454 0.000000
vt 0.000000 1.000000
vt -0.227273 1.000000
vt -0.227273 0.000000
vt 0.227273 0.000000
vt 0.227273 1.000000
vt 0.000000 1.363640
vt 0.000000 1.136360
vt 0.045454 1.136360
vt 0.181818 1.136360
vt 0.227273 1.136360
vt 0.227273 1.363640
vt -1.363640 0.000000
vt -1.136360 0.000000
vt -1.136360 1.000000
vt -1.363640 1.000000
vt -0.227273 1.136360
vt -0.181818 1.136360
vt -0.045454 1.136360
vt 0.000000 1.136360
vt 0.000000 1.363640
vt -0.227273 1.363640
vt 0.227273 0.000000
vt 0.227273 1.000000
vt 0.181818 1.000000
vt 0.181818 0.000000
vt 1.363640 1.000000
vt 1.136360 1.000000
vt 1.136360 0.000000
vt 1.363640 0.000000
vt -0.227273 0.000000
vt 0.000000 0.000000
vt 0.000000 1.000000
vt -0.227273 1.000000
vt -0.796517 0.253483
vt -0.567119 0.253483
vt -0.567119 0.298937
vt -0.796517 0.298937
vt 0.045454 0.567119
vt 0.181818 0.567119
vt 0.227273 0.567119
vt 0.227273 0.796517
vt 0.181818 0.796517
vt 0.045454 0.796517
vt 0.181818 0.298937
vt 0.181818 0.253483
vt 0.227273 0.253483
vt 0.227273 0.298937
vt -0.181818 0.567119
vt -0.181818 0.796517
vt -0.227273 0.796517
vt -0.227273 0.567119
vt -0.181818 0.253483
vt -0.181818 0.298937
vt -0.227273 0.298937
vt -0.227273 0.253483
vt 0.567119 0.253483
vt 0.796517 0.253483
vt 0.796517 0.298937
vt 0.567119 0.298937
vt 0.000000 1.000000
vt 0.000000 0.000000
vt 0.045454 0.000000
vt 0.045454 1.000000
vt -0.227273 1.000000
vt -0.227273 0.000000
vt -0.181818 0.000000
vt -0.181818 1.000000
vt -0.227273 1.000000
vt -0.600714 0.741258
vt -0.227273 0.000000
vt -1.136360 1.000000
vt 1.136360 1.000000
vt 0.796517 0.660154
vt 1.136360 0.000000
vt 0.762923 0.741258
vt 0.681818 0.774853
vt 0.600714 0.741258
vt 0.227273 1.000000
vt 0.567119 0.660154
vt 0.567119 0.253483
vt 0.227273 0.000000
vt -1.136360 0.000000
vt -0.567119 0.660154
vt -0.181818 0.914717
vt -0.181818 0.826930
vt -0.045454 0.826930
vt -0.045454 0.914717
vt -0.181818 0.660154
vt -0.181818 0.298937
vt -0.045454 0.298937
vt -0.045454 0.660154
vt 0.567119 0.298937
vt -0.181818 0.253483
vt -0.045454 0.253483
vt 0.181818 0.567119
vt 0.181818 0.796517
vt 0.045454 0.796517
vt 0.045454 0.567119
vt 0.796517 0.253483
vt 0.796517 0.298937
vt 0.045454 0.660154
vt 0.045454 0.298937
vt 0.181818 0.298937
vt 0.181818 0.660154
vt -0.796517 0.660154
vt -0.762923 0.741258
vt -0.681818 0.774853
vt -0.181818 0.926441
vt -0.181818 0.838654
vt -0.045454 0.838654
vt -0.045454 0.926441
vt 0.181818 -0.421181
vt 0.181818 -0.333395
vt 0.045454 -0.333395
vt 0.045454 -0.421181
vt 0.181818 0.305089
vt 0.181818 0.392875
vt 0.045454 0.392875
vt 0.045454 0.305089
vt 0.045454 0.253483
vt 0.181818 0.253483
vn 0.0000 1.0000 0.0000
vn 1.0000 0.0000 0.0000
vn 0.0000 -1.0000 -0.0000
vn 0.0000 0.0000 -1.0000
vn -1.0000 0.0000 0.0000
vn 0.0000 -0.0000 1.0000
vn 0.0000 -0.3827 -0.9239
vn 0.0000 -0.9239 -0.3827
vn 0.0000 -0.9239 0.3827
vn 0.0000 -0.3827 0.9239
usemtl Light_Stone
s 1
f 1/1/1 2/2/1 3/3/1 4/4/1 5/5/1 6/6/1
f 7/7/2 8/8/2 2/9/2 1/10/2
f 9/11/3 10/12/3 11/13/3 8/14/3 7/15/3 12/16/3
f 9/17/4 5/18/4 4/19/4 10/20/4
f 6/21/5 5/22/5 9/23/5 12/16/5
f 12/16/6 7/24/6 1/25/6 6/21/6
f 16/26/1 17/27/1 14/28/1 15/29/1 18/30/1 19/31/1
f 20/32/5 21/33/5 17/34/5 16/35/5
f 22/36/3 23/37/3 24/38/3 21/39/3 20/40/3 25/41/3
f 22/42/6 18/43/6 15/44/6 23/45/6
f 19/46/2 18/47/2 22/48/2 25/49/2
f 25/50/4 20/51/4 16/52/4 19/53/4
f 37/54/5 32/55/5 35/56/5 40/57/5
f 35/58/1 34/59/1 43/60/1 44/61/1 38/62/1 40/63/1
f 34/64/6 31/65/6 45/66/6 43/67/6
f 31/68/3 36/69/3 46/70/3 45/71/3
f 36/72/4 38/73/4 44/74/4 46/75/4
f 45/76/2 46/77/2 44/78/2 43/79/2
f 17/80/6 21/81/6 24/82/6 14/83/6
f 2/84/4 8/85/4 11/86/4 3/87/4
usemtl Dark_Stone
f 4/88/5 13/89/5 10/90/5
f 13/89/5 4/88/5 14/91/5
f 15/29/1 14/28/1 4/4/1 3/3/1
f 15/92/2 26/93/2 23/94/2
f 15/92/2 27/95/2 26/93/2
f 15/92/2 28/96/2 27/95/2
f 15/92/2 29/97/2 28/96/2
f 3/98/2 29/97/2 15/92/2
f 29/97/2 3/98/2 30/99/2
f 30/99/2 3/98/2 31/100/2
f 11/101/2 31/100/2 3/98/2
f 31/100/2 11/101/2 23/94/2
f 10/12/3 24/38/3 23/37/3 11/13/3
f 10/90/5 32/55/5 24/102/5
f 32/55/5 10/90/5 33/103/5
f 10/90/5 13/89/5 33/103/5
f 29/104/7 30/105/7 33/106/7 13/107/7
f 30/108/4 34/109/4 35/110/4 33/111/4
f 30/99/2 31/100/2 34/112/5
f 31/113/4 32/114/4 35/110/4 34/109/4
f 31/115/1 36/116/1 37/117/1 32/118/1
f 31/100/2 23/94/2 36/119/2
f 36/119/2 23/94/2 38/120/2
f 38/120/2 23/94/2 26/93/2
f 39/121/6 40/122/6 38/123/6 26/124/6
f 39/125/5 14/91/5 40/57/5
f 41/126/5 14/91/5 39/125/5
f 42/127/5 14/91/5 41/126/5
f 13/89/5 14/91/5 42/127/5
f 28/128/8 29/129/8 13/130/8 42/131/8
f 27/132/9 28/133/9 42/134/9 41/135/9
f 26/136/10 27/137/10 41/138/10 39/139/10
f 40/57/5 14/91/5 37/54/5
f 24/102/5 37/54/5 14/91/5
f 24/102/5 32/55/5 37/54/5
f 32/55/5 33/103/5 35/56/2
f 37/140/6 36/141/6 38/123/6 40/122/6
